<svg width="739.19375px" height="122px" xmlns="http://www.w3.org/2000/svg" viewBox="-119.59687500000001 14 739.19375 122" style="background: rgba(0, 0, 0, 0);" preserveAspectRatio="xMidYMid"><defs><filter id="editing-offset"><feFlood flood-color="#f00" flood-opacity="0.5" result="c1"></feFlood><feFlood flood-color="#0f0" flood-opacity="0.5" result="c2"></feFlood><feFlood flood-color="#00f" flood-opacity="0.5" result="c3"></feFlood><feComposite operator="in" in="c1" in2="SourceAlpha" result="text-c1"></feComposite><feComposite operator="in" in="c2" in2="SourceAlpha" result="text-c2"></feComposite><feComposite operator="in" in="c3" in2="SourceAlpha" result="text-c3"></feComposite><feOffset in="text-c1" dx="-10" dy="0" result="text1"></feOffset><feOffset in="text-c2" dx="10" dy="0" result="text2"></feOffset><feOffset in="text-c3" dx="0" dy="0" result="text3"></feOffset><feMerge><feMergeNode in="text1"></feMergeNode><feMergeNode in="text2"></feMergeNode><feMergeNode in="text3"></feMergeNode></feMerge></filter></defs><g filter="url(#editing-offset)"><g transform="translate(-13.77501955628395, 97.39999961853027)"><path d="M14.34 0L0.38 0L8.51-42.24L22.59-42.24L14.34 0ZM47.87-4.80L47.87-4.80L47.87-4.80Q47.87-9.28 49.66-18.24L49.66-18.24L40.19-18.24L36.67 0L23.30 0L31.42-42.24L44.93-42.24L41.22-23.36L50.69-23.36L54.21-42.24L67.71-42.24L67.71-42.24Q66.82-37.50 65.66-32.19L65.66-32.19L63.49-21.76L63.49-21.76Q61.06-9.60 61.06-4.29L61.06-4.29L61.06-4.29Q61.06-2.11 61.76-0.90L61.76-0.90L61.76-0.90Q58.56 1.28 54.82 1.28L54.82 1.28L54.82 1.28Q51.07 1.28 49.47-0.51L49.47-0.51L49.47-0.51Q47.87-2.30 47.87-4.80ZM94.21-29.57L94.21-29.57L94.21-29.57Q95.17-31.49 95.17-33.28L95.17-33.28L95.17-33.28Q95.17-35.07 94.98-36.06L94.98-36.06L94.98-36.06Q94.78-37.06 94.34-37.82L94.34-37.82L94.34-37.82Q93.38-39.49 91.46-39.49L91.46-39.49L91.46-39.49Q89.09-39.49 87.17-37.76L87.17-37.76L87.17-37.76Q85.12-35.97 85.12-33.15L85.12-33.15L85.12-33.15Q85.12-31.36 86.37-29.98L86.37-29.98L86.37-29.98Q87.62-28.61 89.54-27.33L89.54-27.33L89.54-27.33Q91.46-26.05 93.63-24.77L93.63-24.77L93.63-24.77Q95.81-23.49 97.73-21.95L97.73-21.95L97.73-21.95Q102.14-18.43 102.14-13.70L102.14-13.70L102.14-13.70Q102.14-10.50 100.45-7.78L100.45-7.78L100.45-7.78Q98.75-5.06 95.94-3.07L95.94-3.07L95.94-3.07Q89.79 1.28 81.66 1.28L81.66 1.28L81.66 1.28Q75.07 1.28 71.68-0.86L71.68-0.86L71.68-0.86Q68.29-3.01 68.29-6.27L68.29-6.27L68.29-6.27Q68.29-12.10 72.83-13.57L72.83-13.57L72.83-13.57Q74.11-14.02 76.06-14.02L76.06-14.02L76.06-14.02Q78.02-14.02 80.26-13.18L80.26-13.18L80.26-13.18Q79.23-10.56 79.23-8.19L79.23-8.19L79.23-8.19Q79.23-3.07 82.88-3.07L82.88-3.07L82.88-3.07Q85.25-3.07 87.20-4.80L87.20-4.80L87.20-4.80Q89.15-6.53 89.15-8.48L89.15-8.48L89.15-8.48Q89.15-10.43 87.90-11.84L87.90-11.84L87.90-11.84Q86.66-13.25 84.80-14.37L84.80-14.37L84.80-14.37Q82.94-15.49 80.80-16.58L80.80-16.58L80.80-16.58Q78.66-17.66 76.80-19.20L76.80-19.20L76.80-19.20Q72.45-22.72 72.45-28.35L72.45-28.35L72.45-28.35Q72.45-32 74.24-34.85L74.24-34.85L74.24-34.85Q76.03-37.70 78.91-39.62L78.91-39.62L78.91-39.62Q84.67-43.52 91.74-43.52L91.74-43.52L91.74-43.52Q98.82-43.52 102.24-41.41L102.24-41.41L102.24-41.41Q105.66-39.30 105.66-35.71L105.66-35.71L105.66-35.71Q105.66-32.58 103.23-30.59L103.23-30.59L103.23-30.59Q101.12-28.93 98.56-28.93L98.56-28.93L98.56-28.93Q96-28.93 94.21-29.57ZM134.78 1.28L134.78 1.28L134.78 1.28Q126.59 1.28 125.82-10.37L125.82-10.37L114.82-10.37L114.82-10.37Q113.54-7.42 112.64-4.86L112.64-4.86L110.98 0L102.02 0L122.18-42.24L135.94-42.24L138.62-11.14L138.62-11.14Q139.26-4.42 141.82-2.43L141.82-2.43L141.82-2.43Q139.97 1.28 134.78 1.28ZM120.32-23.17L116.80-15.04L125.63-15.04L124.86-31.49L124.86-33.22L120.32-23.17ZM152.13 0L145.09 0L152.77-42.24L166.53-42.24L176.51-13.18L181.82-42.24L188.93-42.18L181.12 0L166.46 0L157.25-27.97L152.13 0ZM210.30 0L203.26 0L210.94-42.24L224.70-42.24L234.69-13.18L240-42.24L247.10-42.18L239.30 0L224.64 0L215.42-27.97L210.30 0ZM249.92-9.47L249.92-9.47L249.92-9.47Q249.92-11.97 250.56-15.17L250.56-15.17L255.74-42.24L269.89-42.24L264.77-14.98L264.77-14.98Q264.19-11.97 264.19-9.76L264.19-9.76L264.19-9.76Q264.19-7.55 265.12-6.40L265.12-6.40L265.12-6.40Q266.05-5.25 267.78-5.25L267.78-5.25L267.78-5.25Q269.50-5.25 270.59-5.70L270.59-5.70L270.59-5.70Q271.68-6.14 272.58-7.23L272.58-7.23L272.58-7.23Q274.30-9.41 275.39-14.98L275.39-14.98L280.58-42.24L290.24-42.24L285.12-15.04L285.12-15.04Q283.33-5.95 278.40-2.30L278.40-2.30L278.40-2.30Q273.60 1.28 264.13 1.28L264.13 1.28L264.13 1.28Q257.02 1.28 253.25-1.79L253.25-1.79L253.25-1.79Q249.92-4.48 249.92-9.47ZM318.27-9.86L318.27-9.86L318.27-9.86Q319.49-8.32 319.49-5.34L319.49-5.34L319.49-5.34Q319.49-2.37 317.22-0.54L317.22-0.54L317.22-0.54Q314.94 1.28 310.98 1.28L310.98 1.28L310.98 1.28Q308.67 1.28 305.09 0.77L305.09 0.77L305.09 0.77Q298.05-0.32 296.03-0.32L296.03-0.32L296.03-0.32Q294.02-0.32 293.18-0.22L293.18-0.22L293.18-0.22Q292.35-0.13 291.01 0L291.01 0L298.75-42.24L312.77-42.24L306.37-7.04L306.37-7.04Q307.20-6.91 307.97-6.91L307.97-6.91L309.57-6.91L309.57-6.91Q314.94-6.91 318.27-9.86ZM336.83 0L323.20 0L330.50-38.91L331.20-42.24L344.90-42.24L336.83 0ZM362.82-3.78L362.82-3.78L362.82-3.78Q361.09 1.28 354.43 1.28L354.43 1.28L354.43 1.28Q349.50 1.28 346.11-4.61L346.11-4.61L346.11-4.61Q342.66-10.50 342.02-20.10L342.02-20.10L342.02-20.10Q349.06-32.96 353.92-38.27L353.92-38.27L353.92-38.27Q358.59-43.33 363.46-43.33L363.46-43.33L363.46-43.33Q366.08-43.33 367.97-41.92L367.97-41.92L367.97-41.92Q369.86-40.51 370.30-38.27L370.30-38.27L370.30-38.27Q368.13-37.38 367.10-36.67L367.10-36.67L367.10-36.67Q364.54-34.75 361.09-30.46L361.09-30.46L355.26-23.49L355.26-23.49Q353.86-21.82 353.28-21.06L353.28-21.06L353.28-21.06Q354.24-15.68 357.12-10.37L357.12-10.37L357.12-10.37Q359.87-5.31 362.82-3.78ZM396.35 1.28L396.35 1.28L396.35 1.28Q388.16 1.28 387.39-10.37L387.39-10.37L376.38-10.37L376.38-10.37Q375.10-7.42 374.21-4.86L374.21-4.86L372.54 0L363.58 0L383.74-42.24L397.50-42.24L400.19-11.14L400.19-11.14Q400.83-4.42 403.39-2.43L403.39-2.43L403.39-2.43Q401.54 1.28 396.35 1.28ZM381.89-23.17L378.37-15.04L387.20-15.04L386.43-31.49L386.43-33.22L381.89-23.17ZM420.22 0L406.53 0L414.34-42.05L414.34-42.05Q420.67-42.75 429.92-42.75L429.92-42.75L429.92-42.75Q439.17-42.75 443.46-40.06L443.46-40.06L443.46-40.06Q447.74-37.38 447.74-31.97L447.74-31.97L447.74-31.97Q447.74-26.56 444.96-23.17L444.96-23.17L444.96-23.17Q442.18-19.78 437.38-18.69L437.38-18.69L437.38-18.69Q438.46-13.38 440.96-9.09L440.96-9.09L440.96-9.09Q443.26-5.06 445.95-3.78L445.95-3.78L445.95-3.78Q444.99-1.09 443.04 0.10L443.04 0.10L443.04 0.10Q441.09 1.28 438.30 1.28L438.30 1.28L438.30 1.28Q435.52 1.28 433.34-0.35L433.34-0.35L433.34-0.35Q431.17-1.98 429.44-4.99L429.44-4.99L429.44-4.99Q425.79-11.52 425.41-21.82L425.41-21.82L425.86-21.82L425.86-21.82Q430.59-21.95 432.96-24.42L432.96-24.42L432.96-24.42Q435.33-26.88 435.33-32.06L435.33-32.06L435.33-32.06Q435.33-38.53 429.89-38.78L429.89-38.78L428.48-38.78L428.48-38.78Q427.90-38.78 427.58-38.72L427.58-38.72L420.22 0ZM463.94 0L449.98 0L458.11-42.24L472.19-42.24L463.94 0ZM479.04 0L471.68 0L483.26-42.24L496.64-42.24L499.58-18.11L511.49-42.24L522.69-42.24L523.84-10.62L523.84-10.62Q524.10-4.35 527.17-2.43L527.17-2.43L527.17-2.43Q526.46-1.15 524.42 0.06L524.42 0.06L524.42 0.06Q522.37 1.28 519.65 1.28L519.65 1.28L519.65 1.28Q516.93 1.28 515.33 0.51L515.33 0.51L515.33 0.51Q513.73-0.26 512.83-1.54L512.83-1.54L512.83-1.54Q511.23-3.84 511.23-8.26L511.23-8.26L511.23-28.03L498.62 0L490.69 0L486.21-28.74L479.04 0Z"></path></g></g><style>text {
  font-size: 64px;
  font-family: Arial Black;
  dominant-baseline: central;
  text-anchor: middle;
}</style></svg>