<?xml version="1.0" standalone="no"?>
<!DOCTYPE svg PUBLIC "-//W3C//DTD SVG 20010904//EN"
 "http://www.w3.org/TR/2001/REC-SVG-20010904/DTD/svg10.dtd">
<svg version="1.0" xmlns="http://www.w3.org/2000/svg"
 width="302.000000pt" height="306.000000pt" viewBox="0 0 302.000000 306.000000"
 preserveAspectRatio="xMidYMid meet">

<g transform="translate(0.000000,306.000000) scale(0.100000,-0.100000)"
fill="#000000" stroke="none">
<path d="M1470 2231 c-71 -15 -107 -39 -129 -91 -12 -27 -22 -73 -24 -102 -1
-29 -7 -59 -14 -66 -7 -7 -10 -25 -7 -41 5 -23 1 -32 -25 -50 -21 -15 -35 -38
-46 -73 -21 -71 -19 -93 8 -105 22 -11 22 -11 -8 -24 -16 -7 -44 -24 -61 -36
-17 -13 -33 -23 -35 -23 -19 0 -109 -104 -126 -145 -22 -51 -53 -151 -53 -168
0 -9 125 -4 325 15 61 5 133 11 160 12 28 2 137 9 244 16 179 13 194 13 206
-3 7 -9 15 -65 19 -124 4 -60 9 -119 12 -133 4 -20 3 -22 -5 -10 -7 9 -11 10
-11 3 0 -16 -37 -20 -573 -59 -82 -5 -87 -7 -81 -26 4 -14 2 -18 -5 -14 -6 4
-11 14 -11 22 0 12 -12 14 -62 10 -192 -16 -220 -17 -213 -6 3 5 35 10 71 10
38 0 64 4 64 11 0 5 -4 8 -9 5 -5 -3 -12 1 -15 10 -9 23 -8 24 20 24 21 0 25
-4 21 -19 -4 -16 3 -18 64 -20 38 -1 69 2 69 7 0 5 -18 7 -40 5 -35 -3 -40 -1
-40 17 0 11 5 20 10 20 6 0 10 -6 10 -12 0 -9 4 -8 10 2 9 13 11 13 20 0 6 -9
10 -10 10 -3 0 6 8 12 18 12 9 -1 27 2 39 6 18 6 21 4 16 -13 -3 -12 -12 -23
-22 -25 -9 -3 7 -5 34 -5 60 -1 507 34 485 38 -8 1 -18 2 -22 1 -5 0 -8 7 -9
17 0 14 -2 14 -9 -3 -7 -17 -9 -17 -9 -2 -1 9 -9 17 -18 17 -14 0 -15 -2 -5
-9 11 -7 11 -9 -2 -14 -11 -5 -16 -1 -16 14 0 18 6 19 55 17 33 -2 55 -8 55
-14 0 -25 61 -32 79 -11 12 15 -4 235 -19 251 -5 5 -132 -1 -292 -13 -155 -12
-369 -28 -474 -35 -106 -7 -197 -17 -204 -21 -8 -5 -10 -19 -5 -41 3 -21 2
-34 -5 -34 -5 0 -11 12 -11 28 -1 20 -2 22 -6 7 -3 -11 -16 -32 -30 -46 -13
-15 -28 -44 -33 -64 -9 -38 -3 -102 10 -120 8 -10 13 -47 11 -72 -1 -7 -12
-13 -25 -13 -13 0 -35 -9 -48 -20 -26 -20 -38 -18 -38 8 0 7 -9 25 -20 39 -18
23 -20 24 -20 6 0 -14 -13 -26 -40 -38 -22 -10 -45 -24 -51 -31 -7 -9 -21 -11
-37 -7 -17 4 -23 2 -18 -6 4 -6 3 -11 -2 -11 -16 0 -53 -42 -48 -55 2 -7 -2
-16 -10 -19 -29 -11 -100 -6 -120 9 -11 8 -14 15 -6 15 21 0 13 40 -13 64 -24
23 -25 27 -25 153 0 71 -3 133 -6 136 -4 3 -15 2 -25 -4 -18 -9 -19 -3 -20
138 -2 190 0 285 6 406 3 63 1 96 -5 92 -6 -4 -8 19 -6 62 6 89 -4 203 -17
203 -7 0 -8 -109 -3 -332 6 -271 9 -652 6 -859 0 -32 -4 -38 -27 -44 -33 -8
-43 -21 -43 -57 0 -21 -5 -28 -19 -28 -10 0 -21 -7 -25 -15 -3 -8 -14 -15 -25
-15 -14 0 -23 -13 -35 -46 -9 -26 -13 -50 -10 -55 2 -4 -9 -35 -26 -68 l-30
-60 0 -217 0 -216 35 21 c32 18 35 19 35 3 0 -14 2 -15 9 -2 6 8 7 18 4 23 -3
5 5 7 18 5 22 -3 24 -7 22 -51 l-2 -47 215 0 216 0 -5 34 c-4 33 -46 83 -72
87 -5 1 8 5 30 9 31 7 51 4 93 -13 28 -11 52 -26 52 -33 0 -6 7 -14 15 -18 8
-3 15 -12 15 -21 0 -9 6 -15 13 -14 24 3 37 -1 37 -12 0 -5 -4 -7 -10 -4 -5 3
-10 2 -10 -4 0 -6 25 -10 60 -10 42 1 60 5 60 14 0 7 7 16 16 19 22 8 54 8 54
-1 0 -5 19 -9 43 -10 73 -3 77 -4 77 -16 0 -7 4 -6 10 3 7 10 10 11 10 2 0
-10 41 -12 188 -11 103 1 182 4 175 6 -7 2 -9 11 -6 19 3 9 -1 14 -12 14 -9 0
-13 -5 -9 -11 4 -7 1 -10 -7 -7 -8 3 -17 18 -20 34 -5 19 -7 22 -8 9 -2 -20
-2 -20 -16 -1 -14 19 -15 19 -15 2 0 -15 -3 -16 -15 -6 -19 15 -19 34 -2 49
10 8 17 7 27 -2 10 -9 11 -9 6 0 -13 24 9 12 34 -17 13 -17 31 -30 40 -30 13
0 13 1 0 10 -8 5 -11 10 -7 10 5 0 1 7 -8 16 -13 13 -14 19 -4 25 7 4 17 5 21
3 4 -3 8 0 8 6 0 7 -7 9 -16 6 -8 -3 -12 -2 -9 4 9 15 -4 30 -21 23 -10 -3
-11 -9 -5 -17 6 -7 6 -17 1 -26 -8 -13 -10 -12 -10 3 0 9 -3 16 -7 16 -23 -4
-35 3 -30 16 4 8 2 17 -4 21 -6 4 -6 11 2 20 9 11 8 20 -5 39 -17 26 -31 34
-23 13 2 -7 0 -24 -5 -37 -5 -14 -5 -28 1 -35 6 -6 6 -17 2 -24 -14 -23 -34
13 -26 48 4 19 3 30 -4 30 -6 0 -11 7 -11 16 0 9 5 12 13 8 6 -4 1 4 -13 19
-14 14 -24 30 -23 34 0 4 -3 16 -8 25 -7 12 -6 18 1 18 6 0 8 5 5 10 -4 6 -1
9 7 8 7 -2 12 3 10 11 -2 9 3 11 13 7 9 -3 21 -6 26 -6 5 0 9 -7 9 -16 0 -12
6 -15 24 -10 31 8 42 -18 22 -49 -12 -19 -13 -24 -2 -28 21 -8 36 8 39 41 2
28 17 48 17 22 0 -5 7 -10 15 -10 18 0 20 41 3 58 -8 8 -8 12 -1 12 6 0 14 -7
17 -16 3 -8 10 -13 15 -9 5 3 12 1 16 -5 3 -5 -2 -10 -12 -11 -11 0 -13 -3 -5
-6 6 -2 10 -10 6 -16 -3 -7 1 -4 9 5 18 23 32 23 49 1 18 -24 40 -28 36 -6 -5
30 -21 43 -37 29 -12 -9 -13 -8 -6 3 6 11 4 13 -9 8 -12 -5 -16 -2 -14 11 2
11 -3 17 -14 16 -10 -1 -14 4 -11 12 3 8 0 14 -5 14 -6 0 -14 16 -18 35 -3 19
-10 38 -15 41 -14 8 -28 -39 -17 -58 5 -11 5 -18 -1 -18 -13 0 -21 27 -14 47
4 10 2 14 -4 10 -6 -4 -25 -2 -43 4 l-32 12 44 22 c25 13 63 26 86 30 l42 7
-14 -46 c-12 -39 -12 -46 0 -46 8 0 11 6 8 15 -3 8 -2 20 2 27 5 7 9 20 9 28
0 10 12 16 37 18 28 2 39 -1 47 -17 14 -25 21 -171 9 -171 -5 0 -6 -4 -3 -10
11 -17 18 -73 19 -140 1 -62 6 -84 27 -123 5 -9 6 -35 3 -57 l-7 -40 169 0
c143 1 166 3 152 14 -21 16 -23 36 -4 36 7 0 16 -9 19 -20 7 -27 24 -25 33 3
9 29 23 37 54 30 35 -8 50 -22 50 -45 0 -37 33 -14 64 44 44 81 26 100 -109
123 -33 6 -37 9 -20 15 11 5 16 9 11 9 -5 1 -3 8 4 16 10 12 10 15 0 15 -8 0
-11 10 -8 30 3 16 1 30 -4 30 -5 0 -6 5 -3 10 10 17 -7 11 -22 -7 -14 -17 -14
-17 -9 0 3 10 6 23 6 28 0 10 31 12 54 3 9 -3 16 -15 16 -26 0 -10 -4 -16 -10
-13 -5 3 -10 1 -10 -4 0 -6 4 -11 8 -11 18 0 28 22 24 50 -4 26 -8 29 -33 26
-16 -2 -30 2 -33 10 -3 7 11 58 30 114 34 102 43 163 24 175 -11 7 -6 40 16
97 8 23 10 39 4 43 -6 3 -10 1 -10 -4 0 -6 -6 -11 -14 -11 -8 0 -16 -15 -20
-38 -3 -21 -14 -47 -24 -57 -10 -11 -19 -24 -21 -30 -7 -26 -10 -13 -6 32 2
27 14 72 26 99 39 90 40 94 24 94 -8 0 -22 -18 -31 -40 -9 -22 -19 -40 -24
-40 -4 0 -12 -18 -19 -40 -7 -22 -16 -38 -22 -35 -5 4 -7 11 -4 16 4 5 8 19
10 30 10 50 27 87 50 109 24 23 36 58 15 45 -6 -3 -10 -2 -10 4 0 5 5 11 12
13 19 7 19 43 -2 104 -11 31 -20 65 -20 76 0 31 18 20 31 -19 6 -20 20 -46 30
-57 11 -11 19 -27 19 -35 1 -36 74 -91 120 -91 35 0 90 31 131 73 37 39 38 42
35 101 -5 81 -17 108 -77 174 -31 34 -48 60 -45 71 7 21 -5 40 -34 54 -38 19
-62 62 -68 116 -3 32 -9 51 -17 51 -7 0 -39 25 -70 55 -59 58 -97 81 -190 116
-30 11 -55 23 -55 25 0 3 7 13 16 22 19 18 13 95 -10 121 -14 17 -15 64 -2
144 7 39 6 47 -7 47 -8 0 -17 6 -19 12 -3 8 -10 4 -17 -11 -9 -17 -10 -26 -2
-34 6 -6 11 -42 11 -79 0 -67 0 -68 -24 -62 -20 5 -25 2 -28 -18 -2 -15 -11
-24 -25 -26 -15 -2 -25 -13 -29 -28 -3 -13 -10 -24 -15 -24 -4 0 -14 -12 -21
-27 -17 -35 -73 -73 -108 -73 -15 0 -35 9 -45 20 -17 19 -17 20 9 31 24 11 24
13 8 25 -15 12 -11 14 33 15 49 1 49 1 -28 16 -69 13 -79 18 -93 44 -14 28
-14 30 11 39 15 6 31 10 36 10 12 0 12 -27 -1 -35 -23 -14 -10 -33 21 -30 18
3 34 7 38 10 7 8 -21 25 -31 19 -10 -7 -10 -1 2 30 8 22 16 26 49 26 22 0 43
5 46 10 3 6 12 10 20 10 8 0 27 12 42 26 l28 26 5 -28 6 -29 14 30 c11 22 13
40 7 70 -22 97 -64 156 -122 169 -16 4 -37 8 -45 10 -8 2 -31 0 -50 -3z m43
-71 c-6 -23 -48 -28 -56 -6 -8 19 1 26 34 26 22 0 26 -4 22 -20z m327 -691 c0
-5 -12 -11 -27 -15 -16 -3 -34 -7 -41 -10 -8 -2 -10 1 -6 9 5 9 4 9 -7 0 -7
-7 -19 -13 -27 -13 -25 0 -6 25 24 31 42 8 84 7 84 -2z m-210 -176 c0 -26 -1
-26 -15 -7 -12 16 -14 17 -15 2 0 -12 -8 -16 -30 -16 -16 1 -27 5 -23 11 3 5
-5 2 -18 -6 -13 -8 -50 -15 -81 -15 -50 -1 -58 2 -58 18 0 11 7 19 18 19 9 0
50 2 89 5 61 4 74 3 83 -12 10 -15 11 -15 6 0 -6 20 2 28 26 28 13 0 18 -7 18
-27z m-272 -22 c-16 -25 -58 -25 -58 1 0 23 16 23 30 1 10 -16 11 -16 6 -1 -3
10 1 18 12 21 24 5 25 2 10 -22z m-148 -6 c0 -16 -6 -25 -15 -25 -8 0 -15 5
-15 12 0 9 -3 9 -12 0 -18 -18 -28 -15 -28 8 0 26 46 28 53 3 4 -14 5 -12 6 5
1 30 11 28 11 -3z m40 -4 c0 -19 -3 -22 -9 -12 -7 11 -9 11 -14 0 -3 -8 -6 -2
-6 12 -1 16 4 26 14 26 10 0 15 -10 15 -26z m40 18 c0 -5 -4 -7 -10 -4 -5 3
-10 2 -10 -4 0 -5 6 -12 13 -14 7 -3 5 -6 -5 -6 -12 -1 -18 6 -18 19 0 11 7
20 15 20 8 0 15 -5 15 -11z m-237 -19 c3 -11 11 -20 17 -20 10 0 10 3 0 15
-16 20 -6 19 14 -1 34 -34 8 -84 -44 -84 -52 0 -73 65 -32 98 23 18 39 15 45
-8z m322 0 c3 -5 1 -10 -4 -10 -6 0 -11 5 -11 10 0 6 2 10 4 10 3 0 8 -4 11
-10z m265 -20 c0 -11 -7 -20 -15 -20 -8 0 -15 -7 -15 -15 0 -8 -4 -15 -10 -15
-5 0 -10 16 -10 35 0 31 3 35 25 35 18 0 25 -5 25 -20z m30 -12 c0 -25 -3 -29
-10 -18 -13 20 -13 50 0 50 6 0 10 -15 10 -32z m-172 5 c-1 -10 1 -24 5 -30
10 -16 -5 -17 -21 -1 -9 9 -12 8 -12 -5 0 -29 -17 -19 -22 13 -5 36 -2 40 29
40 18 0 23 -5 21 -17z m70 -8 c16 -34 16 -32 -18 -31 -30 1 -35 10 -24 40 9
24 29 19 42 -9z m-208 -18 c0 -24 -3 -28 -10 -17 -8 13 -10 12 -10 -2 0 -10
-4 -18 -10 -18 -5 0 -10 8 -11 18 0 14 -2 14 -8 -3 -7 -17 -9 -16 -13 10 -8
38 -5 42 32 43 27 1 30 -2 30 -31z m64 5 c14 -28 14 -28 -19 -28 -31 0 -32 1
-23 28 6 15 14 28 19 28 5 0 15 -13 23 -28z m-250 -4 c10 -40 7 -45 -29 -45
-32 0 -35 3 -35 29 0 25 3 28 20 23 11 -4 20 -2 20 4 0 20 18 11 24 -11z m59
15 c-7 -2 -13 -16 -13 -29 0 -13 -4 -24 -10 -24 -5 0 -10 8 -10 18 0 10 -5 23
-12 30 -9 9 -4 12 23 11 18 0 28 -3 22 -6z m589 -38 c2 -19 1 -35 -3 -35 -3 0
-21 -3 -38 -6 -31 -6 -31 -6 -31 35 0 40 1 41 34 41 31 0 34 -3 38 -35z m-267
-16 c6 -9 -26 -49 -40 -49 -3 0 -5 14 -5 30 0 23 5 30 19 30 11 0 23 -5 26
-11z m25 -8 c0 -11 8 -22 18 -24 13 -4 13 -5 -4 -6 -16 -1 -23 6 -26 24 -3 14
-1 25 3 25 5 0 9 -9 9 -19z m-169 -8 c1 -17 2 -17 6 0 2 9 8 17 13 17 14 0 20
-44 7 -52 -18 -11 -27 -10 -27 5 0 8 -4 7 -10 -3 -7 -11 -10 -7 -10 18 0 33
19 46 21 15z m89 -8 c0 -29 -34 -36 -44 -9 -10 27 -7 34 19 34 20 0 25 -5 25
-25z m-190 -10 c0 -31 -20 -43 -27 -16 -6 25 -21 28 -19 4 1 -13 -8 -18 -36
-20 -40 -3 -47 4 -25 26 10 11 10 13 0 7 -7 -4 -13 -2 -13 3 0 6 7 11 16 11
11 0 15 -6 11 -20 -3 -11 -1 -20 4 -20 5 0 9 8 9 18 0 25 4 28 45 29 30 1 35
-2 35 -22z m39 -2 c-1 -17 -3 -21 -6 -10 -2 9 -9 17 -14 17 -6 0 -7 5 -4 10
12 19 25 10 24 -17z m531 -10 c0 -5 -5 -15 -10 -23 -8 -13 -10 -12 -10 4 0 20
0 20 -14 0 -14 -18 -15 -18 -13 4 1 16 8 22 24 22 13 0 23 -3 23 -7z m-740
-63 c9 -16 8 -20 -5 -20 -8 0 -15 9 -15 20 0 11 2 20 5 20 2 0 9 -9 15 -20z
m-88 -5 c14 -18 8 -22 -36 -22 -36 -1 -43 2 -39 16 5 19 62 24 75 6z m-44
-189 c65 -23 189 -85 202 -101 7 -8 16 -12 21 -9 5 2 23 -3 41 -13 18 -9 38
-18 43 -19 6 -1 29 -7 53 -13 23 -7 46 -10 51 -7 16 10 40 -20 49 -61 8 -34 7
-43 -5 -48 -13 -4 -13 -8 -2 -22 9 -11 1 -8 -20 6 -27 20 -35 21 -42 10 -7
-12 -9 -12 -9 1 0 18 -51 24 -62 7 -4 -7 -10 -8 -20 0 -7 6 -37 16 -65 23 -48
11 -55 10 -86 -9 -48 -29 -53 -27 -50 22 3 39 2 40 -8 17 -7 -14 -11 -32 -10
-41 1 -9 -5 -16 -13 -16 -8 0 -13 4 -11 8 3 4 1 18 -5 31 -9 19 -10 17 -7 -19
1 -24 -1 -43 -5 -43 -5 0 -8 8 -9 18 0 15 -2 14 -10 -3 -7 -16 -8 -14 -3 9 4
24 0 34 -18 48 -18 14 -19 17 -4 11 17 -6 19 -3 14 28 -7 39 -48 132 -55 125
-3 -2 3 -30 12 -61 9 -31 13 -69 10 -84 -4 -19 4 -46 26 -91 l32 -64 -12 -90
c-7 -50 -16 -104 -21 -121 -4 -16 -11 -54 -14 -82 -6 -48 -5 -53 12 -53 18 0
18 -4 8 -40 -8 -30 -7 -46 1 -60 17 -26 -2 -30 -43 -9 -19 9 -63 20 -99 24
-36 3 -65 9 -65 11 0 3 5 14 10 25 6 11 7 19 2 19 -6 0 -12 9 -15 20 -3 13 0
20 9 20 18 0 18 21 0 62 -8 18 -20 47 -27 65 -7 17 -17 29 -21 27 -4 -3 -8 0
-8 5 0 6 8 12 18 12 16 1 16 2 -1 6 -15 4 -17 12 -13 46 4 38 7 52 23 97 3 8
7 24 8 35 1 11 8 67 15 125 7 58 14 129 14 158 1 35 6 56 16 62 23 15 122 12
168 -4z m-668 -17 c10 -18 9 -20 -7 -17 -10 2 -19 11 -21 21 -5 24 15 21 28
-4z m424 -30 c22 -10 23 -14 13 -36 -11 -24 -14 -25 -67 -19 -31 4 -65 3 -76
-1 -16 -6 -15 -8 11 -19 l30 -13 -32 -1 c-17 0 -33 6 -36 13 -4 13 44 47 67
47 8 0 24 9 37 20 29 23 23 22 53 9z m-57 -85 c-3 -3 -12 -4 -19 -1 -8 3 -5 6
6 6 11 1 17 -2 13 -5z m-140 -10 c-3 -3 -12 -4 -19 -1 -8 3 -5 6 6 6 11 1 17
-2 13 -5z m1463 -135 c-17 -41 -22 -31 -8 17 6 21 13 33 15 26 3 -7 -1 -26 -7
-43z m-712 -21 c-3 -7 -15 -15 -29 -19 -38 -11 -129 -10 -129 1 0 6 17 10 38
11 20 1 48 5 62 9 38 12 62 11 58 -2z m-19 -133 c0 -5 -4 -3 -9 5 -5 8 -9 22
-9 30 0 16 17 -16 18 -35z m610 -112 c0 -63 -3 -82 -9 -65 -12 29 -34 30 -25
1 6 -19 5 -20 -8 -8 -8 8 -13 17 -10 22 2 4 -1 7 -8 7 -7 0 -9 8 -6 21 4 15 2
19 -9 15 -8 -3 -14 -1 -14 4 0 21 -20 9 -21 -12 0 -22 -1 -22 -9 -3 -13 30
-12 32 24 54 40 25 47 26 39 4 -4 -11 -3 -14 5 -9 7 4 12 13 12 20 0 14 20 36
32 36 4 0 8 -39 7 -87z m-139 7 c0 -5 -4 -10 -10 -10 -5 0 -10 5 -10 10 0 6 5
10 10 10 6 0 10 -4 10 -10z m-570 -41 c0 -12 -4 -17 -11 -13 -8 4 -9 -1 -5
-17 3 -13 -2 -6 -13 16 -10 22 -16 43 -14 48 8 14 43 -14 43 -34z m-51 -73 c9
-11 11 -16 4 -13 -6 4 -13 1 -16 -5 -6 -19 -14 -8 -20 27 -3 17 -8 39 -12 50
-3 11 1 7 11 -10 9 -16 24 -39 33 -49z m-337 -4 c9 -9 9 -12 0 -12 -7 0 -12 4
-12 10 0 5 -7 7 -15 4 -8 -4 -15 -2 -15 4 0 13 27 9 42 -6z m422 2 c5 -14 4
-15 -9 -4 -17 14 -19 20 -6 20 5 0 12 -7 15 -16z m-417 -30 c-3 -3 -12 -4 -19
-1 -8 3 -5 6 6 6 11 1 17 -2 13 -5z m289 -29 c4 -11 11 -12 24 -5 9 5 20 6 24
3 3 -3 6 -1 6 7 0 9 3 10 14 1 11 -9 12 -20 4 -51 -6 -22 -14 -40 -18 -40 -4
0 -10 -10 -13 -22 -6 -21 -7 -21 -34 8 -16 16 -27 32 -25 37 2 4 -2 7 -7 7 -6
0 -11 9 -11 21 0 11 -4 17 -10 14 -5 -3 -10 1 -10 9 0 10 6 13 15 10 8 -4 15
-1 15 5 0 16 20 13 26 -4z m781 -7 c-3 -8 -6 -5 -6 6 -1 11 2 17 5 13 3 -3 4
-12 1 -19z m-1082 -36 c-3 -3 -11 0 -18 7 -9 10 -8 11 6 5 10 -3 15 -9 12 -12z
m440 -14 c-1 -13 -5 -24 -10 -25 -5 -1 -12 -10 -16 -20 -7 -16 -8 -16 -8 3 -1
23 21 74 29 69 3 -2 5 -14 5 -27z m-525 7 c20 -11 21 -14 7 -15 -10 0 -25 7
-33 15 -19 19 -7 19 26 0z"/>
<path d="M1015 1260 c-3 -5 -1 -10 4 -10 6 0 11 5 11 10 0 6 -2 10 -4 10 -3 0
-8 -4 -11 -10z"/>
<path d="M1470 1145 c0 -8 5 -15 10 -15 6 0 10 7 10 15 0 8 -4 15 -10 15 -5 0
-10 -7 -10 -15z"/>
<path d="M901 764 c-1 -6 6 -28 14 -47 8 -20 15 -48 15 -62 0 -14 14 -46 31
-73 17 -26 28 -39 25 -29 -3 10 -13 41 -21 70 -19 59 -63 158 -64 141z"/>
<path d="M1435 600 c3 -5 8 -10 11 -10 2 0 4 5 4 10 0 6 -5 10 -11 10 -5 0 -7
-4 -4 -10z"/>
<path d="M1855 301 c-3 -5 -1 -12 4 -15 5 -3 11 1 15 9 6 16 -9 21 -19 6z"/>
<path d="M1110 124 c0 -8 32 -33 43 -34 5 0 5 4 2 10 -8 13 -45 33 -45 24z"/>
<path d="M1823 2000 c0 -25 2 -35 4 -22 2 12 2 32 0 45 -2 12 -4 2 -4 -23z"/>
<path d="M331 2015 c9 -11 19 -27 22 -35 5 -13 6 -13 6 1 1 9 -9 24 -21 35
-23 19 -23 19 -7 -1z"/>
<path d="M2175 1853 c2 -87 4 -222 4 -300 1 -89 5 -143 11 -143 7 0 9 105 8
300 -2 230 -6 300 -15 300 -10 0 -12 -37 -8 -157z"/>
<path d="M863 1863 c4 -58 7 -187 7 -286 0 -99 3 -177 7 -174 3 4 5 49 4 101
-1 62 2 97 10 101 8 5 8 10 1 14 -7 4 -12 61 -13 146 -1 120 1 140 14 143 29
6 34 62 5 62 -6 0 -8 -11 -6 -25 3 -14 1 -25 -3 -25 -5 0 -9 11 -9 25 0 14 -5
25 -12 25 -8 0 -9 -29 -5 -107z"/>
<path d="M386 1947 c3 -10 9 -15 12 -12 3 3 0 11 -7 18 -10 9 -11 8 -5 -6z"/>
<path d="M1875 1780 c10 -11 20 -20 23 -20 3 0 -3 9 -13 20 -10 11 -20 20 -23
20 -3 0 3 -9 13 -20z"/>
<path d="M861 1334 c0 -11 3 -14 6 -6 3 7 2 16 -1 19 -3 4 -6 -2 -5 -13z"/>
<path d="M873 1285 c-8 -23 0 -24 20 -3 14 15 15 18 2 18 -9 0 -18 -7 -22 -15z"/>
<path d="M490 1202 c0 -4 9 -13 20 -20 11 -7 20 -9 20 -4 0 4 -9 13 -20 20
-11 7 -20 9 -20 4z"/>
<path d="M2963 1084 c-3 -9 -9 -30 -12 -48 -5 -22 -15 -35 -39 -45 -36 -16
-42 -31 -13 -31 25 0 36 -17 22 -34 -6 -7 -8 -15 -5 -19 3 -3 20 10 37 29 18
19 36 34 41 34 5 0 2 -8 -7 -18 -22 -25 -21 -39 3 -45 11 -3 20 -1 20 4 0 5
-4 9 -10 9 -5 0 -10 5 -10 11 0 5 4 8 9 5 14 -9 21 20 21 83 0 56 -11 81 -37
81 -8 0 -16 -7 -20 -16z"/>
<path d="M2805 931 c-6 -11 9 -23 19 -14 9 9 7 23 -3 23 -6 0 -12 -4 -16 -9z"/>
<path d="M2465 908 c-7 -20 0 -47 15 -61 11 -10 11 -8 5 8 -5 11 -9 30 -9 43
-1 25 -5 28 -11 10z"/>
<path d="M400 897 c0 -18 46 -28 74 -17 19 7 19 9 4 15 -10 4 -23 5 -30 2 -7
-2 -21 0 -30 5 -13 6 -18 5 -18 -5z"/>
<path d="M170 887 c0 -7 9 -18 20 -25 22 -14 25 -9 10 19 -12 21 -30 26 -30 6z"/>
<path d="M2958 893 c7 -3 16 -2 19 1 4 3 -2 6 -13 5 -11 0 -14 -3 -6 -6z"/>
<path d="M45 863 c-4 -19 -2 -29 9 -35 9 -5 16 -16 16 -25 0 -9 3 -14 6 -10 9
9 -5 97 -16 97 -4 0 -11 -12 -15 -27z"/>
<path d="M2383 878 c-12 -6 -23 -19 -26 -29 -6 -23 -27 -26 -27 -4 0 8 -4 15
-9 15 -14 0 -35 -30 -22 -31 20 -2 26 -4 36 -10 6 -4 23 -9 40 -13 35 -9 44
-21 46 -61 0 -24 2 -26 8 -11 5 14 10 16 15 8 11 -19 26 -14 26 8 0 12 7 20
16 20 12 0 15 -6 10 -24 -5 -19 -1 -25 17 -30 39 -10 67 -7 67 9 0 8 -4 15
-10 15 -5 0 -7 7 -4 15 6 14 -25 95 -35 95 -17 -1 -33 -19 -26 -30 5 -8 4 -11
-2 -7 -6 4 -14 0 -17 -9 -3 -8 -11 -12 -17 -9 -6 4 -9 0 -7 -11 2 -11 -3 -19
-11 -19 -17 0 -25 56 -9 66 14 9 1 29 -18 29 -8 0 -14 5 -14 11 0 5 5 7 12 3
7 -4 8 -3 4 4 -8 14 -14 14 -43 0z"/>
<path d="M2900 870 c6 -11 13 -20 16 -20 2 0 0 9 -6 20 -6 11 -13 20 -16 20
-2 0 0 -9 6 -20z"/>
<path d="M2215 870 c-3 -5 -1 -10 4 -10 6 0 11 5 11 10 0 6 -2 10 -4 10 -3 0
-8 -4 -11 -10z"/>
<path d="M2266 872 c-3 -4 4 -9 15 -9 23 -2 25 3 4 10 -8 4 -16 3 -19 -1z"/>
<path d="M2950 850 c0 -5 5 -10 10 -10 6 0 10 5 10 10 0 6 -4 10 -10 10 -5 0
-10 -4 -10 -10z"/>
<path d="M2756 835 c-3 -8 -13 -15 -21 -15 -9 0 -14 -4 -10 -9 3 -5 0 -13 -6
-17 -18 -11 42 -53 76 -54 17 0 47 -4 67 -9 55 -13 70 10 26 40 -18 12 -38 27
-43 33 -10 11 -69 46 -78 46 -3 0 -7 -7 -11 -15z"/>
<path d="M2990 793 c-8 -3 -26 -14 -39 -24 l-23 -19 23 -9 c13 -5 31 -5 40 0
9 4 19 5 23 2 3 -3 6 3 6 15 0 12 -5 22 -11 22 -5 0 -7 5 -4 10 7 11 7 11 -15
3z"/>
<path d="M2300 756 c0 -9 5 -16 10 -16 6 0 10 4 10 9 0 6 -4 13 -10 16 -5 3
-10 -1 -10 -9z"/>
<path d="M2630 740 c20 -13 33 -13 25 0 -3 6 -14 10 -23 10 -15 0 -15 -2 -2
-10z"/>
<path d="M2370 670 c-6 -11 -20 -20 -30 -20 -11 0 -20 -4 -20 -9 0 -5 10 -8
23 -8 17 0 27 8 34 28 13 33 9 38 -7 9z"/>
<path d="M2796 655 c4 -8 10 -12 15 -9 5 3 8 -5 6 -18 -1 -15 3 -23 13 -23 10
0 15 9 14 25 -2 36 -2 35 -29 38 -18 1 -23 -2 -19 -13z"/>
<path d="M2750 631 c0 -11 5 -23 10 -26 6 -3 10 3 10 14 0 11 -4 23 -10 26 -5
3 -10 -3 -10 -14z"/>
<path d="M2955 640 c-3 -5 -2 -10 4 -10 5 0 13 5 16 10 3 6 2 10 -4 10 -5 0
-13 -4 -16 -10z"/>
<path d="M2910 630 c0 -5 5 -10 11 -10 5 0 7 5 4 10 -3 6 -8 10 -11 10 -2 0
-4 -4 -4 -10z"/>
<path d="M2900 570 c0 -5 -11 -12 -25 -16 -13 -3 -27 -15 -30 -25 -4 -10 -13
-19 -21 -19 -8 0 -14 -5 -14 -11 0 -7 -15 -10 -40 -7 -32 3 -40 0 -38 -12 2
-9 14 -15 31 -14 15 1 27 -2 27 -7 0 -14 -14 -16 -48 -7 -23 6 -32 14 -28 23
3 9 0 12 -10 8 -7 -3 -14 1 -14 8 0 7 -3 9 -7 6 -3 -4 -12 -2 -20 4 -10 9 -13
8 -13 -4 0 -8 7 -18 16 -21 12 -5 13 -10 5 -19 -6 -8 -9 -28 -8 -45 2 -31 11
-41 21 -23 3 5 15 11 27 14 20 5 20 5 3 -14 -16 -18 -16 -19 4 -19 15 0 22 6
22 19 0 29 26 33 38 5 8 -15 17 -22 27 -18 8 3 15 1 15 -5 0 -6 -6 -11 -12
-11 -9 0 -8 -3 2 -9 19 -13 26 -7 46 34 9 19 20 33 24 30 12 -7 1 46 -12 62
-5 7 -8 18 -5 25 3 8 8 4 14 -11 7 -16 12 -20 17 -13 4 7 12 9 18 6 7 -5 9 5
4 30 -5 24 -3 43 5 52 9 11 8 14 -5 14 -9 0 -16 -4 -16 -10z m-90 -155 c9 -10
9 -15 1 -15 -6 0 -11 6 -11 13 0 8 -4 7 -10 -3 -8 -13 -10 -12 -10 3 0 21 13
22 30 2z"/>
<path d="M2220 520 c0 -5 5 -10 11 -10 5 0 7 5 4 10 -3 6 -8 10 -11 10 -2 0
-4 -4 -4 -10z"/>
<path d="M2262 476 c10 -7 15 -16 11 -20 -4 -3 2 -13 13 -22 10 -8 13 -13 7
-9 -21 10 -15 -23 7 -38 11 -8 17 -17 12 -22 -4 -4 3 -5 16 -2 17 4 22 1 22
-15 0 -14 5 -18 16 -14 9 3 18 6 20 6 3 0 2 6 -2 13 -5 8 -2 7 9 -2 21 -17 35
-7 19 12 -7 8 -8 18 -4 22 4 5 1 5 -5 1 -7 -4 -27 -9 -44 -11 -23 -3 -29 0
-25 11 3 8 -1 14 -10 14 -12 0 -12 4 -4 20 11 20 9 22 -20 24 -8 1 -14 8 -12
16 3 13 -15 30 -33 30 -5 -1 -2 -7 7 -14z"/>
<path d="M2338 413 c7 -3 16 -2 19 1 4 3 -2 6 -13 5 -11 0 -14 -3 -6 -6z"/>
<path d="M2873 381 c0 -11 5 -18 9 -15 4 3 5 11 1 19 -7 21 -12 19 -10 -4z"/>
<path d="M2610 360 c0 -5 7 -7 15 -4 8 4 15 1 15 -6 0 -6 5 -8 10 -5 18 11 10
25 -15 25 -14 0 -25 -4 -25 -10z"/>
<path d="M2837 330 c-8 -11 -16 -18 -18 -15 -3 2 -5 -6 -6 -18 0 -12 1 -16 4
-9 3 6 9 10 14 6 5 -3 9 2 9 10 0 8 8 14 19 13 18 -1 18 -27 0 -27 -5 0 -9 -5
-9 -11 0 -7 -8 -18 -17 -26 -14 -10 -14 -13 -3 -11 10 2 14 -4 12 -15 -2 -14
2 -17 24 -13 25 5 25 4 10 -13 -9 -10 -16 -23 -16 -30 0 -7 -4 -10 -8 -7 -5 3
-9 -1 -9 -9 0 -15 25 -27 62 -30 14 -1 20 -9 20 -25 0 -13 7 -24 15 -26 8 -1
24 -5 35 -9 16 -5 17 -5 5 3 -12 9 -12 14 4 31 10 11 21 19 25 17 3 -2 6 9 6
25 0 16 -4 29 -8 29 -5 0 -6 4 -2 9 5 9 -32 27 -47 23 -5 -1 -8 2 -8 8 0 5 5
10 10 10 14 0 6 65 -10 85 -7 8 -16 13 -20 10 -5 -3 -15 1 -23 9 -8 8 -17 12
-21 9 -3 -4 -6 -1 -6 5 0 19 -28 14 -43 -8z m153 -164 c0 -3 -4 -8 -10 -11 -5
-3 -10 -1 -10 4 0 6 5 11 10 11 6 0 10 -2 10 -4z"/>
<path d="M2336 214 c-6 -14 -4 -15 9 -4 14 12 15 10 11 -13 -6 -33 -1 -34 15
-6 9 17 8 23 -2 30 -20 12 -26 11 -33 -7z"/>
<path d="M1417 209 c7 -7 15 -10 18 -7 3 3 -2 9 -12 12 -14 6 -15 5 -6 -5z"/>
<path d="M2173 175 c0 -22 2 -30 4 -17 2 12 2 30 0 40 -3 9 -5 -1 -4 -23z"/>
<path d="M2849 193 c-13 -16 -12 -17 4 -4 9 7 17 15 17 17 0 8 -8 3 -21 -13z"/>
<path d="M2376 164 c-4 -9 -4 -19 -1 -22 2 -3 7 3 11 12 4 9 4 19 1 22 -2 3
-7 -3 -11 -12z"/>
<path d="M1325 150 c3 -5 8 -10 11 -10 2 0 4 5 4 10 0 6 -5 10 -11 10 -5 0 -7
-4 -4 -10z"/>
<path d="M1416 97 c3 -10 9 -15 12 -12 3 3 0 11 -7 18 -10 9 -11 8 -5 -6z"/>
<path d="M2842 81 c-11 -7 -11 -9 1 -14 16 -6 27 0 27 15 0 10 -11 10 -28 -1z"/>
<path d="M46 42 c-4 -7 -5 -16 -1 -21 3 -5 -3 -12 -12 -14 -10 -3 -6 -4 10 -4
29 1 29 2 18 31 -5 14 -10 16 -15 8z"/>
<path d="M2866 31 c-3 -5 1 -14 9 -21 10 -9 15 -9 15 -1 0 6 -5 11 -11 11 -5
0 -7 5 -4 10 3 6 4 10 1 10 -3 0 -7 -4 -10 -9z"/>
<path d="M1440 21 c0 -6 5 -13 10 -16 6 -3 10 1 10 9 0 9 -4 16 -10 16 -5 0
-10 -4 -10 -9z"/>
<path d="M1496 17 c3 -10 9 -15 12 -12 3 3 0 11 -7 18 -10 9 -11 8 -5 -6z"/>
<path d="M1995 20 c-3 -6 1 -7 9 -4 18 7 21 14 7 14 -6 0 -13 -4 -16 -10z"/>
<path d="M2200 21 c-8 -6 -18 -7 -22 -5 -4 3 -8 1 -8 -5 0 -14 39 -9 44 6 6
15 5 16 -14 4z"/>
<path d="M2466 17 c3 -10 9 -15 12 -12 3 3 0 11 -7 18 -10 9 -11 8 -5 -6z"/>
</g>
</svg>
