<?xml version="1.0" encoding="UTF-8"?>
<svg version="1.1" xmlns="http://www.w3.org/2000/svg" width="1080" height="1080">
<path d="M0 0 C356.4 0 712.8 0 1080 0 C1080 356.4 1080 712.8 1080 1080 C723.6 1080 367.2 1080 0 1080 C0 723.6 0 367.2 0 0 Z " fill="#FEFEFF" transform="translate(0,0)"/>
<path d="M0 0 C2.33294775 -0.04241723 4.66702567 -0.04092937 7 0 C8.56003906 1.56003906 8.18134119 3.12973552 8.24609375 5.296875 C8.27896484 6.1734375 8.31183594 7.05 8.34570312 7.953125 C8.40638466 9.80197518 8.4637347 11.65093804 8.51757812 13.5 C8.69405855 18.05519277 8.85486069 21.86604732 11 26 C12.99954746 26.04254356 15.00041636 26.04080783 17 26 C18.70986752 24.29013248 18.21000296 22.02500942 18.28125 19.6875 C18.31863281 18.61242187 18.35601563 17.53734375 18.39453125 16.4296875 C18.42933594 15.29789063 18.46414063 14.16609375 18.5 13 C18.56855494 10.77069493 18.6412424 8.54151176 18.71875 6.3125 C18.76418945 4.82169922 18.76418945 4.82169922 18.81054688 3.30078125 C19 1 19 1 20 0 C25.52941176 -0.23529412 25.52941176 -0.23529412 28 1 C28.14541967 5.22880411 28.23411527 9.45696413 28.3125 13.6875 C28.35439453 14.88568359 28.39628906 16.08386719 28.43945312 17.31835938 C28.57760478 27.23764798 28.57760478 27.23764798 25.60546875 30.33203125 C23 32 23 32 21 32 C21 32.66 21 33.32 21 34 C13.5859359 34.35619169 8.1554095 34.43895959 2.1875 29.5 C-0.33144281 26.3181775 -0.11732731 23.11347955 -0.09765625 19.23828125 C-0.09443359 18.12001953 -0.09121094 17.00175781 -0.08789062 15.84960938 C-0.07951172 14.68236328 -0.07113281 13.51511719 -0.0625 12.3125 C-0.05573242 10.54422852 -0.05573242 10.54422852 -0.04882812 8.74023438 C-0.03703273 5.82677211 -0.0205727 2.91341137 0 0 Z " fill="#DBFCFF" transform="translate(533,526)"/>
<path d="M0 0 C2.31 0 4.62 0 7 0 C5.68 0.33 4.36 0.66 3 1 C3 11.56 3 22.12 3 33 C2.01 33 1.02 33 0 33 C0 22.11 0 11.22 0 0 Z " fill="#4AFEFF" transform="translate(567,526)"/>
<path d="M0 0 C1.65 0 3.3 0 5 0 C5 10.89 5 21.78 5 33 C4.01 33 3.02 33 2 33 C2 22.44 2 11.88 2 1 C1.34 0.67 0.68 0.34 0 0 Z " fill="#FF49FF" transform="translate(691,526)"/>
<path d="M0 0 C0.99 0 1.98 0 3 0 C3 10.89 3 21.78 3 33 C2.01 33 1.02 33 0 33 C0 22.11 0 11.22 0 0 Z " fill="#32FFFF" transform="translate(699,526)"/>
<path d="M0 0 C0.99 0 1.98 0 3 0 C3 10.89 3 21.78 3 33 C2.01 33 1.02 33 0 33 C0 22.11 0 11.22 0 0 Z " fill="#32FEFF" transform="translate(684,526)"/>
<path d="M0 0 C0.99 0 1.98 0 3 0 C3 10.89 3 21.78 3 33 C2.01 33 1.02 33 0 33 C0 22.11 0 11.22 0 0 Z " fill="#32FFFF" transform="translate(496,526)"/>
<path d="M0 0 C0.99 0 1.98 0 3 0 C3 10.56 3 21.12 3 32 C2.01 32 1.02 32 0 32 C0 21.44 0 10.88 0 0 Z " fill="#42FEFF" transform="translate(654,527)"/>
<path d="M0 0 C0.99 0 1.98 0 3 0 C3 10.56 3 21.12 3 32 C2.01 32 1.02 32 0 32 C0 21.44 0 10.88 0 0 Z " fill="#FF44FF" transform="translate(527,527)"/>
<path d="M0 0 C0.99 0 1.98 0 3 0 C3 10.56 3 21.12 3 32 C2.01 32 1.02 32 0 32 C0 21.44 0 10.88 0 0 Z " fill="#FF2FFF" transform="translate(385,527)"/>
<path d="M0 0 C1.65 0 3.3 0 5 0 C5 8.91 5 17.82 5 27 C4.01 27 3.02 27 2 27 C2 18.42 2 9.84 2 1 C1.34 0.67 0.68 0.34 0 0 Z " fill="#FE4BFF" transform="translate(574,526)"/>
<path d="M0 0 C0.99 0 1.98 0 3 0 C3.05814085 3.58326501 3.09364357 7.16640838 3.125 10.75 C3.14175781 11.76578125 3.15851562 12.7815625 3.17578125 13.828125 C3.18222656 14.8078125 3.18867187 15.7875 3.1953125 16.796875 C3.20578613 17.69760742 3.21625977 18.59833984 3.22705078 19.52636719 C2.9828154 22.18721979 2.48257631 23.7839915 1 26 C-1.625 26.75 -1.625 26.75 -4 27 C-3.5155542 26.61932373 -3.0311084 26.23864746 -2.53198242 25.84643555 C-0.45601345 23.34435534 -0.57359732 21.68197877 -0.48828125 18.45703125 C-0.45283203 17.38388672 -0.41738281 16.31074219 -0.38085938 15.20507812 C-0.35830078 14.08552734 -0.33574219 12.96597656 -0.3125 11.8125 C-0.27833984 10.68134766 -0.24417969 9.55019531 -0.20898438 8.38476562 C-0.12643686 5.5899426 -0.05730818 2.79543602 0 0 Z " fill="#1EFFFF" transform="translate(552,527)"/>
<path d="M0 0 C0.99 0.33 1.98 0.66 3 1 C4.25854492 3.62036133 4.25854492 3.62036133 5.48046875 7.08203125 C5.92197266 8.32404297 6.36347656 9.56605469 6.81835938 10.84570312 C7.04289795 11.49676025 7.26743652 12.14781738 7.4987793 12.81860352 C8.18279659 14.7988833 8.88566458 16.77165311 9.59179688 18.74414062 C13 28.41875406 13 28.41875406 13 33 C12.34 33 11.68 33 11 33 C9.59196759 28.9439521 8.18618959 24.887132 6.7824707 20.82958984 C6.3048958 19.45014493 5.82671183 18.07091073 5.34790039 16.69189453 C4.65870454 14.70660969 3.97172209 12.72057067 3.28515625 10.734375 C2.87144775 9.54038086 2.45773926 8.34638672 2.03149414 7.11621094 C1.24734436 4.7472434 0.54980024 2.43069581 0 0 Z " fill="#FF28FF" transform="translate(641,526)"/>
<path d="M0 0 C1.875 0.3125 1.875 0.3125 4 1 C6.45970225 4.68955337 6.57750613 7.71611123 6 12 C4.625 14.5 4.625 14.5 3 16 C2.34 16 1.68 16 1 16 C1.76697796 17.41875765 2.53876778 18.83491452 3.3125 20.25 C3.74175781 21.03890625 4.17101562 21.8278125 4.61328125 22.640625 C5.9534484 25.03172974 5.9534484 25.03172974 7.66796875 27.171875 C9 29 9 29 9 31 C4.94795049 29.64931683 4.12451637 27.60422271 1.8125 24.0625 C1.09707031 22.98097656 0.38164063 21.89945313 -0.35546875 20.78515625 C-2 18 -2 18 -2 16 C-1.175 15.278125 -0.35 14.55625 0.5 13.8125 C3.31116326 11.17295531 3.31116326 11.17295531 3.5 7.4375 C2.99318044 3.95311553 2.40096632 2.50100658 0 0 Z " fill="#FF20FF" transform="translate(675,528)"/>
<path d="M0 0 C0.66 0 1.32 0 2 0 C0.5591436 7.27253309 -1.63379174 14.0862366 -4.125 21.0625 C-4.49753906 22.11888672 -4.87007813 23.17527344 -5.25390625 24.26367188 C-6.16465377 26.84412317 -7.08009705 29.42280144 -8 32 C-8.99 31.67 -9.98 31.34 -11 31 C-7.37 20.77 -3.74 10.54 0 0 Z " fill="#21FDFF" transform="translate(423,527)"/>
<path d="M0 0 C0.66 0.33 1.32 0.66 2 1 C1.33871094 1.72445312 0.67742188 2.44890625 -0.00390625 3.1953125 C-1.27041016 4.64550781 -1.27041016 4.64550781 -2.5625 6.125 C-3.40941406 7.07632813 -4.25632812 8.02765625 -5.12890625 9.0078125 C-7.28854526 11.85581395 -7.28854526 11.85581395 -6.94140625 15.140625 C-5.81518685 18.56134118 -4.25707772 20.58697483 -1.9609375 23.2890625 C-1 25 -1 25 -1.3515625 27.2109375 C-1.67253906 28.09652344 -1.67253906 28.09652344 -2 29 C-3.56190881 26.76186247 -5.09883882 24.51230952 -6.625 22.25 C-7.07101562 21.61578125 -7.51703125 20.9815625 -7.9765625 20.328125 C-9.2265625 18.453125 -9.2265625 18.453125 -11 15 C-10.4921875 12.8359375 -10.4921875 12.8359375 -9 11 C-8.4534375 10.24460937 -7.906875 9.48921875 -7.34375 8.7109375 C-6.7353125 7.94007813 -6.126875 7.16921875 -5.5 6.375 C-4.8915625 5.59898437 -4.283125 4.82296875 -3.65625 4.0234375 C-2 2 -2 2 0 0 Z " fill="#FF20FF" transform="translate(621,527)"/>
<path d="M0 0 C0.66 0 1.32 0 2 0 C-0.54884871 10.58379083 -4.3346264 20.76492929 -8 31 C-8.66 31 -9.32 31 -10 31 C-9.41691994 24.48590243 -7.28974437 18.78414454 -5 12.6875 C-4.63132812 11.68654297 -4.26265625 10.68558594 -3.8828125 9.65429688 C-1.1945211 2.38904221 -1.1945211 2.38904221 0 0 Z " fill="#1DFFFF" transform="translate(630,527)"/>
<path d="M0 0 C0.66 0 1.32 0 2 0 C2.1457733 4.04128452 2.23423181 8.08188906 2.3125 12.125 C2.3753418 13.83816406 2.3753418 13.83816406 2.43945312 15.5859375 C2.57761695 25.09160845 2.57761695 25.09160845 -0.34375 28.75 C-3.04887169 31.04139719 -4.49796127 31.7998835 -8 32 C-7.21625 31.443125 -6.4325 30.88625 -5.625 30.3125 C-2.2277787 27.31970981 -1.21368108 24.79534644 -0.68115234 20.32104492 C-0.64973145 19.38365479 -0.61831055 18.44626465 -0.5859375 17.48046875 C-0.52792969 15.9480957 -0.52792969 15.9480957 -0.46875 14.38476562 C-0.42234375 12.80211914 -0.42234375 12.80211914 -0.375 11.1875 C-0.31699219 9.57584961 -0.31699219 9.57584961 -0.2578125 7.93164062 C-0.16381387 5.28792912 -0.07815427 2.6442195 0 0 Z " fill="#FF10FF" transform="translate(562,527)"/>
<path d="M0 0 C0.66 0 1.32 0 2 0 C2.19634033 0.53367187 2.39268066 1.06734375 2.5949707 1.6171875 C3.50055987 4.07821853 4.40652788 6.53910993 5.3125 9 C5.62123047 9.83917969 5.92996094 10.67835938 6.24804688 11.54296875 C6.55419922 12.37441406 6.86035156 13.20585938 7.17578125 14.0625 C7.63174683 15.30386719 7.63174683 15.30386719 8.09692383 16.5703125 C8.68498602 18.15246847 9.28328874 19.73086793 9.89331055 21.3046875 C11.33656964 25.03385385 12.37797536 27.9682628 12 32 C8.86655678 30.43327839 8.72664905 27.88004436 7.6171875 24.62890625 C7.39805695 23.99137924 7.17892639 23.35385223 6.95315552 22.69700623 C6.4908423 21.34728732 6.03210508 19.99633909 5.57666016 18.64428711 C4.87815855 16.57187124 4.16859377 14.50351006 3.45703125 12.43554688 C0 2.30784608 0 2.30784608 0 0 Z " fill="#FF1DFF" transform="translate(435,527)"/>
<path d="M0 0 C0.66 0.33 1.32 0.66 2 1 C1.505 1.53625 1.01 2.0725 0.5 2.625 C-1.4203453 5.66554673 -1.36914086 7.45624771 -1 11 C0.34906121 14.69742703 2.03187392 15.87967681 5.5 17.625 C8.11430363 18.95761581 9.91320318 19.91320318 12 22 C11.625 24.125 11.625 24.125 11 26 C9.68 26.33 8.36 26.66 7 27 C7.66 26.67 8.32 26.34 9 26 C8.83832342 23.57680529 8.83832342 23.57680529 8 21 C6.04950749 19.46670087 6.04950749 19.46670087 3.625 18.4375 C0.0912866 16.7742375 -1.98968305 15.4054896 -4 12 C-4.59227794 9.26805131 -4.53391503 6.74263722 -4 4 C-2 1.5 -2 1.5 0 0 Z " fill="#1FFFFF" transform="translate(394,527)"/>
<path d="M0 0 C0.33 0 0.66 0 1 0 C1 7.92 1 15.84 1 24 C0.01 24 -0.98 24 -2 24 C-2.05425013 21.12474331 -2.09379277 18.25052354 -2.125 15.375 C-2.14175781 14.56675781 -2.15851562 13.75851562 -2.17578125 12.92578125 C-2.21420986 8.19906185 -1.82737094 4.44612298 0 0 Z " fill="#2EF8FF" transform="translate(729,535)"/>
<path d="M0 0 C0.99 0.33 1.98 0.66 3 1 C2.67 2.32 2.34 3.64 2 5 C2.60328125 5.30292969 3.2065625 5.60585938 3.828125 5.91796875 C12.74474628 10.5920041 12.74474628 10.5920041 15 15 C15.21373124 18.75135183 14.81002575 21.96316704 12.4375 25 C11.963125 25.33 11.48875 25.66 11 26 C10.34 25.67 9.68 25.34 9 25 C9.7425 24.195625 9.7425 24.195625 10.5 23.375 C12.4674199 20.25991849 12.5923739 18.62829011 12 15 C8.50371055 10.52037914 3.84596236 7.82580932 -1 5 C-0.67 3.35 -0.34 1.7 0 0 Z " fill="#FC1AFF" transform="translate(400,532)"/>
<path d="M0 0 C2.43047521 2.23881844 4.04424529 4.52516288 5.69921875 7.37890625 C6.18583984 8.21744141 6.67246094 9.05597656 7.17382812 9.91992188 C7.67333984 10.79197266 8.17285156 11.66402344 8.6875 12.5625 C9.19861328 13.43841797 9.70972656 14.31433594 10.23632812 15.21679688 C14 21.74417974 14 21.74417974 14 24 C10.42369265 22.80789755 10.14056189 22.04980948 8.30078125 18.88671875 C7.81416016 18.05076172 7.32753906 17.21480469 6.82617188 16.35351562 C6.32666016 15.47373047 5.82714844 14.59394531 5.3125 13.6875 C4.80138672 12.81931641 4.29027344 11.95113281 3.76367188 11.05664062 C0 4.50915804 0 4.50915804 0 0 Z " fill="#1DFFFF" transform="translate(504,535)"/>
<path d="M0 0 C0.66 0 1.32 0 2 0 C2.03758423 0.96824707 2.03758423 0.96824707 2.07592773 1.95605469 C2.19214433 4.88755894 2.31475442 7.81876217 2.4375 10.75 C2.47681641 11.76578125 2.51613281 12.7815625 2.55664062 13.828125 C2.59853516 14.8078125 2.64042969 15.7875 2.68359375 16.796875 C2.72025146 17.69760742 2.75690918 18.59833984 2.79467773 19.52636719 C2.98306407 21.79596339 3.37366501 23.81562887 4 26 C2.68 25.34 1.36 24.68 0 24 C0 16.08 0 8.16 0 0 Z " fill="#FF0AFF" transform="translate(542,527)"/>
<path d="M0 0 C3.5222421 4.1119753 6.13336622 8.47841153 8.75 13.1875 C9.36681641 14.27321289 9.36681641 14.27321289 9.99609375 15.38085938 C13 20.74497768 13 20.74497768 13 23 C12.34 23 11.68 23 11 23 C8.85986956 20.09185591 7.16612945 16.88220353 5.375 13.75 C4.859375 12.87730469 4.34375 12.00460937 3.8125 11.10546875 C3.32523437 10.26113281 2.83796875 9.41679688 2.3359375 8.546875 C1.88782715 7.77182617 1.4397168 6.99677734 0.97802734 6.19824219 C0 4 0 4 0 0 Z " fill="#22FAFF" transform="translate(456,536)"/>
<path d="M0 0 C0.66 0 1.32 0 2 0 C0.40554307 8.26218593 -2.26018069 16.06288986 -5 24 C-5.33 24 -5.66 24 -6 24 C-5.78097561 15.35849242 -3.11087437 7.9665934 0 0 Z " fill="#13FEFF" transform="translate(724,527)"/>
<path d="M0 0 C2.82227644 2.82227644 3.49645494 6.20739613 4.625 9.9375 C4.85445312 10.66646484 5.08390625 11.39542969 5.3203125 12.14648438 C6.25868208 15.19339276 7 17.79398214 7 21 C6.01 20.67 5.02 20.34 4 20 C1.24091538 13.63288164 -0.64654908 6.95040259 0 0 Z " fill="#15FFFF" transform="translate(708,538)"/>
<path d="M0 0 C4.875 0.875 4.875 0.875 6 2 C6.1875 4.4375 6.1875 4.4375 6 7 C5.34 7.66 4.68 8.32 4 9 C2.68 9 1.36 9 0 9 C0 6.03 0 3.06 0 0 Z " fill="#4AFEFF" transform="translate(666,532)"/>
<path d="M0 0 C0.99 0 1.98 0 3 0 C7.59225513 13.6332574 7.59225513 13.6332574 7 20 C4.65159062 16.47738593 3.58651352 12.88285578 2.375 8.875 C2.14554688 8.13378906 1.91609375 7.39257812 1.6796875 6.62890625 C0 1.15992374 0 1.15992374 0 0 Z " fill="#FD24FF" transform="translate(711,527)"/>
<path d="M0 0 C4.14369185 1.38123062 5.21403736 4.19503066 7.25 7.8125 C7.81460937 8.75706055 7.81460937 8.75706055 8.390625 9.72070312 C11.09779848 14.46323314 11.09779848 14.46323314 10.59667969 17.21362305 C10.39977539 17.80312744 10.20287109 18.39263184 10 19 C8.32992313 16.02273264 6.66451428 13.0428803 5 10.0625 C4.28457031 8.78729492 4.28457031 8.78729492 3.5546875 7.48632812 C3.10351562 6.67744141 2.65234375 5.86855469 2.1875 5.03515625 C1.76855469 4.2862915 1.34960938 3.53742676 0.91796875 2.76586914 C0 1 0 1 0 0 Z " fill="#FF23FF" transform="translate(459,527)"/>
<path d="M0 0 C4.02939664 1.34313221 4.63016687 3.19038843 6.75 6.8125 C7.38421875 7.87082031 8.0184375 8.92914062 8.671875 10.01953125 C10.10579154 13.23740866 10.01842053 13.83172274 9 17 C7.49462965 14.54481265 5.99555574 12.0861548 4.5 9.625 C4.07074219 8.92632813 3.64148438 8.22765625 3.19921875 7.5078125 C0 2.2265625 0 2.2265625 0 0 Z " fill="#FF24FF" transform="translate(508,527)"/>
<path d="M0 0 C0.99 0.33 1.98 0.66 3 1 C3 4.63 3 8.26 3 12 C2.01 12 1.02 12 0 12 C0 8.04 0 4.08 0 0 Z " fill="#FE44FF" transform="translate(663,547)"/>
<path d="M0 0 C0.33 0 0.66 0 1 0 C1.25401601 4.1238677 1.47400105 8.24885192 1.6875 12.375 C1.76033203 13.550625 1.83316406 14.72625 1.90820312 15.9375 C1.96298828 17.05898438 2.01777344 18.18046875 2.07421875 19.3359375 C2.13182373 20.37282715 2.18942871 21.4097168 2.2487793 22.47802734 C2.16668213 23.31027832 2.08458496 24.1425293 2 25 C1.01 25.66 0.02 26.32 -1 27 C-1.99 26.67 -2.98 26.34 -4 26 C-3.01 25.34 -2.02 24.68 -1 24 C-0.49039309 21.48614741 -0.49039309 21.48614741 -0.48828125 18.5546875 C-0.43510742 16.94013672 -0.43510742 16.94013672 -0.38085938 15.29296875 C-0.35830078 14.16503906 -0.33574219 13.03710938 -0.3125 11.875 C-0.27833984 10.73933594 -0.24417969 9.60367188 -0.20898438 8.43359375 C-0.12630498 5.62249421 -0.05722063 2.81171447 0 0 Z " fill="#6DFDFF" transform="translate(552,527)"/>
<path d="M0 0 C0.33 0 0.66 0 1 0 C1.3152595 5.98993047 0.68219822 9.63560356 -2 15 C-2.66 15 -3.32 15 -4 15 C-2.9318153 9.88634986 -1.76892524 4.92772031 0 0 Z " fill="#FF2EFF" transform="translate(726,544)"/>
<path d="M0 0 C0.99 0.33 1.98 0.66 3 1 C-1.95 7.435 -1.95 7.435 -7 14 C-7.33 12.68 -7.66 11.36 -8 10 C-6.34765625 7.421875 -6.34765625 7.421875 -4.0625 4.75 C-2.93521484 3.41195312 -2.93521484 3.41195312 -1.78515625 2.046875 C-1.19605469 1.37140625 -0.60695313 0.6959375 0 0 Z " fill="#2CF8FF" transform="translate(610,527)"/>
<path d="M0 0 C3.78570414 1.26190138 4.21831571 2.54855815 6.1875 5.9375 C6.71730469 6.83339844 7.24710938 7.72929688 7.79296875 8.65234375 C9 11 9 11 9 13 C8.34 13 7.68 13 7 13 C5.2734375 10.6640625 5.2734375 10.6640625 3.375 7.625 C2.74335937 6.62726562 2.11171875 5.62953125 1.4609375 4.6015625 C0 2 0 2 0 0 Z " fill="#2BFCFF" transform="translate(665,546)"/>
<path d="M0 0 C0.66 0 1.32 0 2 0 C2.50512244 1.60256108 3.00391627 3.20711792 3.5 4.8125 C3.7784375 5.70582031 4.056875 6.59914063 4.34375 7.51953125 C5 10 5 10 5 13 C4.01 13 3.02 13 2 13 C1.66127487 11.58461283 1.32925376 10.16762037 1 8.75 C0.814375 7.96109375 0.62875 7.1721875 0.4375 6.359375 C0 4 0 4 0 0 Z " fill="#34FDFF" transform="translate(636,533)"/>
<path d="M0 0 C4.33034194 3.84919283 6.6560756 7.72289646 9 13 C5.6227555 11.60724746 4.12929695 10.17726069 2.25 7.0625 C1.82203125 6.37285156 1.3940625 5.68320312 0.953125 4.97265625 C0 3 0 3 0 0 Z " fill="#1FFCFF" transform="translate(604,546)"/>
<path d="M0 0 C1.29409289 0.61996078 2.58519673 1.24616353 3.875 1.875 C4.95394531 2.39707031 4.95394531 2.39707031 6.0546875 2.9296875 C8 4 8 4 10 6 C9.625 8.125 9.625 8.125 9 10 C7.68 10.33 6.36 10.66 5 11 C5.66 10.67 6.32 10.34 7 10 C6.96906827 7.58414426 6.96906827 7.58414426 6 5 C3.03292954 3.14083176 3.03292954 3.14083176 0 2 C0 1.34 0 0.68 0 0 Z " fill="#45FEFF" transform="translate(396,543)"/>
<path d="M0 0 C0.99 0.33 1.98 0.66 3 1 C2.67 2.32 2.34 3.64 2 5 C4.64 6.32 7.28 7.64 10 9 C9.34 9.66 8.68 10.32 8 11 C5.03 9.02 2.06 7.04 -1 5 C-0.67 3.35 -0.34 1.7 0 0 Z " fill="#FE40FF" transform="translate(400,532)"/>
<path d="M0 0 C0.99 0 1.98 0 3 0 C3 2.97 3 5.94 3 9 C2.01 9 1.02 9 0 9 C0 6.03 0 3.06 0 0 Z " fill="#F651FF" transform="translate(663,532)"/>
<path d="M0 0 C2.3129482 2.3129482 2.49580975 3.47904875 3.125 6.625 C3.29257812 7.44226563 3.46015625 8.25953125 3.6328125 9.1015625 C3.81457031 10.04128906 3.81457031 10.04128906 4 11 C3.34 11 2.68 11 2 11 C1.01 7.7 0.02 4.4 -1 1 C-0.67 0.67 -0.34 0.34 0 0 Z " fill="#22FBFF" transform="translate(430,534)"/>
<path d="M0 0 C0.99 0.33 1.98 0.66 3 1 C3 2.98 3 4.96 3 7 C3.66 7.33 4.32 7.66 5 8 C3.35 7.67 1.7 7.34 0 7 C0 4.69 0 2.38 0 0 Z " fill="#4FFFFF" transform="translate(389,551)"/>
<path d="M0 0 C2.95183101 2.95183101 3.08663988 5.95511947 4 10 C3.01 10 2.02 10 1 10 C-0.1577506 6.52674819 -0.06866652 3.63932552 0 0 Z " fill="#22F8FF" transform="translate(708,538)"/>
<path d="M0 0 C1.98 0.99 1.98 0.99 4 2 C3.6875 3.9375 3.6875 3.9375 3 6 C2.01 6.33 1.02 6.66 0 7 C0 4.69 0 2.38 0 0 Z " fill="#F1FFFF" transform="translate(666,533)"/>
<path d="M0 0 C2.31 0.33 4.62 0.66 7 1 C8.125 5.75 8.125 5.75 7 8 C6.34 8 5.68 8 5 8 C5.33 6.02 5.66 4.04 6 2 C3.03 1.505 3.03 1.505 0 1 C0 0.67 0 0.34 0 0 Z " fill="#FF52FF" transform="translate(406,526)"/>
<path d="M0 0 C0.99 0.33 1.98 0.66 3 1 C3.33 3.31 3.66 5.62 4 8 C3.34 8 2.68 8 2 8 C0.23537317 4.91190305 0 3.76687864 0 0 Z " fill="#33FFFF" transform="translate(434,551)"/>
<path d="M0 0 C1.125 1.625 1.125 1.625 2 4 C1.125 7.25 1.125 7.25 0 10 C-0.66 10 -1.32 10 -2 10 C-1.54177532 6.53058454 -1.10868317 3.32604951 0 0 Z " fill="#2CF7FF" transform="translate(622,548)"/>
<path d="M0 0 C2 3 2 3 2 5 C2.66 5.33 3.32 5.66 4 6 C1.36 6 -1.28 6 -4 6 C-3.01 5.67 -2.02 5.34 -1 5 C-0.67 3.35 -0.34 1.7 0 0 Z " fill="#CCE9FF" transform="translate(430,540)"/>
<path d="M0 0 C0.66 0 1.32 0 2 0 C1.67 2.64 1.34 5.28 1 8 C0.01 8 -0.98 8 -2 8 C-1.34 5.36 -0.68 2.72 0 0 Z " fill="#F833FF" transform="translate(428,537)"/>
<path d="M0 0 C0.66 1.32 1.32 2.64 2 4 C-2.39453125 8.00390625 -2.39453125 8.00390625 -4 9 C-4.99 8.67 -5.98 8.34 -7 8 C-5.824375 7.4121875 -5.824375 7.4121875 -4.625 6.8125 C-1.64843582 4.75725331 -1.01176437 3.40320742 0 0 Z " fill="#FF38FF" transform="translate(561,550)"/>
<path d="M0 0 C0.99 0 1.98 0 3 0 C2.125 4.75 2.125 4.75 1 7 C0.34 7 -0.32 7 -1 7 C-0.67 4.69 -0.34 2.38 0 0 Z " fill="#FF30FF" transform="translate(630,552)"/>
<path d="M0 0 C0.66 0.99 1.32 1.98 2 3 C1.360625 3.268125 0.72125 3.53625 0.0625 3.8125 C-2.33131686 4.88667752 -2.33131686 4.88667752 -3 8 C-3.66 7.67 -4.32 7.34 -5 7 C-5 5 -5 5 -2.5 2.375 C-1.675 1.59125 -0.85 0.8075 0 0 Z " fill="#FF45FF" transform="translate(678,539)"/>
<path d="M0 0 C0.66 0.33 1.32 0.66 2 1 C1.125 6.75 1.125 6.75 0 9 C-0.66 8.67 -1.32 8.34 -2 8 C-1.34 5.36 -0.68 2.72 0 0 Z " fill="#EF2EFF" transform="translate(635,536)"/>
<path d="M0 0 C2.72426311 2.35277269 3.8141763 4.62496331 5 8 C4.01 8.495 4.01 8.495 3 9 C0.70620251 5.55930376 0 4.27709699 0 0 Z " fill="#31FCFF" transform="translate(504,535)"/>
</svg>
